<svg xmlns="http://www.w3.org/2000/svg" fill="#000000" width="800" height="800" viewBox="0 0 572.371 572.37">
    <path
        d="M556.92 407.511c9.05-5.9 9.977-11.314 2.746-18.671a33.2 33.2 0 0 0-9.232-6.597c-4.346-2.064-9.111-3.239-13.812-4.839 10.103-4.541 11.106-5.558 13.962-14.007l-4.288-6.866c-14.863-7.585-29.616-5.337-44.219.709-12.231 5.063-24.223 10.739-36.561 15.521-15.361 5.953-31.013 7.662-46.818 7.373-.722-.114-1.452-.212-2.191-.277-20.566-1.73-43.778-6.377-65.096-12.808 2.974-3.713 5.822-7.462 8.299-11.44 5.141-8.254 3.528-11.016-6.353-14.369 5.479-5.945 10.938-11.444 15.896-17.365 4.438-5.3 8.702-10.832 12.329-16.703 2.632-4.255 4.023-9.485.258-13.896-4.064-4.757-9.633-4.026-15.022-2.632-1.388.359-2.673 1.109-4.803 2.023 3.525-10.15 7.263-19.269 9.78-28.71 1.881-7.066 3.211-14.586 2.994-21.848-.493-16.532-7.874-20.592-22.399-13.244 1.058-11.755 2.652-23.48 2.995-35.243.253-8.682-.347-17.564-1.963-26.092-2.631-13.917-6.907-15.186-17.185-6.226-.926-8.352-1.6-16.716-2.881-24.99-.575-3.709-2.129-7.332-3.635-10.824-4.361-10.115-9.054-10.886-16.997-3.439l-8.462-26.222c-.277-.849-.719-1.648-1.146-2.44-4.688-8.633-7.679-8.972-13.86-1.489-6.275-10.857-8.405-24.586-21.379-30.722l-5.72 3.574c-4.606 12.966-2.668 26.067-.408 39.05a186.96 186.96 0 0 1 1.395 9.445c-.546 2.954-.387 6.03.71 8.988l.204.567c.853 12.134.481 24.068-.869 35.839l-1.501 6.528c-.212.922-.053 1.709.314 2.342-3.835 24.325-11.779 47.98-22.024 71.277-2.44 5.549-4.5 11.265-6.846 16.858-10.918 26.031-2.097 49.16 10.277 71.902 4.178 7.683 8.005 15.605 11.318 23.696 1.082 2.644 1.942 5.186 2.583 7.626l-21.18-31.062c-4.067-7.409-8.886-14.366-14.888-20.588-2.289-2.37-5.908-3.46-8.915-5.137l-4.316 8.604c-3.978-4.564-8.168-9.947-12.97-14.712-4.113-4.084-8.621-7.928-13.484-11.053-9.568-6.153-13.856-4.174-16.381 5.663l-25.439-21.359c-2.195-1.771-5.157-2.721-7.903-3.656-6.997-2.383-9.392-1.379-12.713 4.431-7.103-3.998-13.896-8.69-21.346-11.812-11.049-4.631-16.234-1.828-19.764 9.47-12.57-8.882-26.39-14.655-41.653-15.729-7.731-.542-15.655.245-23.358 1.363-3.542.514-7.128 2.828-9.988 5.182-1.771 1.457-3.399 4.798-2.93 6.785.457 1.934 3.468 3.68 5.725 4.664 2.411 1.053 5.23 1.289 7.903 1.579 32.114 3.48 57.222 20.661 79.226 42.42 13.492 13.346 24.969 28.78 36.875 43.655 6.887 8.604 15.463 14.239 25.659 17.695 16.116 5.463 33.036 8.996 46.671 20.273.261.216.624.314 1.048.343.841 1.139 1.832 2.183 2.999 3.084.269.209.551.408.82.616-5.149.535-10.298 1.09-15.357 2.016-10.331 1.89-20.702 4.297-30.567 7.834-28.862 10.354-39.4 43.636-22.521 69.181 3.264 4.937 5.826 10.334 9.196 16.385 5.336 7.817 2.672 16.875 5.104 14.827s4.863-10.466 6.385-12.832c1.742-5.386 4.402-8.666 11.306-9.437 10.102-1.131 18.413-7.45 22.75-15.235l7.748-2.231c.326.126.648.2.975.195 23.178-.322 44.296 8.899 66.32 13.958 17.878 4.104 35.953 8.417 54.162 9.809 35.908 2.746 62.176-13.93 77.427-46.716.751-1.612 1.444-3.252 2.121-4.9 2.889-.122 5.781-.159 8.67-.073a175.73 175.73 0 0 1 6.075.277c.694.354 1.392.689 2.126.824a103.88 103.88 0 0 1 7.846 1.783c1.485.815 3.068 1.493 4.762 1.966 4.504 1.253 9.225 3.072 13.811 5.312 17.046 9.106 29.756 23.64 38.797 42.905 2.044 4.357 5.193 8.523 8.752 11.779 7.837 7.177 16.038 4.324 18.567-6.01.074-.294.139-.592.204-.886.314-.171.637-.33.938-.519 1.388-.868 2.579-1.848 3.631-2.896l11.882 6.218 8.009-5.006c4.071-7.919 6.699-16.079 4.443-25.215 1.158-.24 2.293-.591 3.398-1.023 5.242 1.407 10.176 2.13 14.137-2.607 5.101-6.096 3.374-13.149.927-19.805-1.028-2.794-2.571-5.414-4.101-8.213.905-.607 1.767-1.276 2.578-2.011 5.312.444 10.481.293 13.656-5.17 2.664-4.577.779-12.533-4.333-17.883-3.024-3.155-6.585-5.799-9.912-8.679z" />
</svg>