<?xml version="1.0" standalone="no"?>
<!DOCTYPE svg PUBLIC "-//W3C//DTD SVG 20010904//EN"
 "http://www.w3.org/TR/2001/REC-SVG-20010904/DTD/svg10.dtd">
<svg version="1.0" xmlns="http://www.w3.org/2000/svg"
 width="781.000000pt" height="738.000000pt" viewBox="0 0 781.000000 738.000000"
 preserveAspectRatio="xMidYMid meet">

<g transform="translate(0.000000,738.000000) scale(0.100000,-0.100000)"
fill="#000000" stroke="none">
<path d="M6020 6530 l0 -850 360 0 360 0 0 -1970 0 -1970 -360 0 -360 0 0
-355 0 -355 -2125 0 -2125 0 0 355 0 355 -885 0 -885 0 0 -870 0 -870 885 0
885 0 0 355 0 355 2125 0 2125 0 0 -355 0 -355 885 0 885 0 0 870 0 870 -360
0 -360 0 0 1970 0 1970 360 0 360 0 0 850 0 850 -885 0 -885 0 0 -850z m1500
30 l0 -600 -615 0 -615 0 0 600 0 600 615 0 615 0 0 -600z m-6010 -5690 l0
-600 -620 0 -620 0 0 600 0 600 620 0 620 0 0 -600z m6010 0 l0 -600 -615 0
-615 0 0 600 0 600 615 0 615 0 0 -600z"/>
<path d="M2569 6630 c-41 -22 -408 -378 -1080 -1049 -477 -476 -509 -514 -509
-600 0 -65 33 -102 133 -150 45 -22 137 -56 204 -76 161 -47 395 -134 513
-191 l95 -45 0 -387 c0 -213 4 -481 9 -596 l8 -208 57 -25 c82 -37 210 -77
341 -108 405 -94 1319 -338 2115 -565 268 -76 396 -102 502 -103 87 0 117 16
134 73 22 74 11 121 -416 1720 -80 300 -159 604 -176 675 -81 341 -111 451
-149 547 -22 57 -49 114 -60 128 l-19 25 -595 3 -595 4 -22 66 c-11 37 -56
159 -99 272 -43 113 -97 264 -119 336 -73 234 -158 314 -272 254z m105 -679
c18 -47 58 -162 90 -256 l57 -170 -308 -311 c-169 -171 -336 -334 -371 -362
l-62 -51 -93 33 c-50 19 -164 61 -252 94 -88 32 -191 69 -230 82 -38 12 -73
25 -77 29 -13 12 135 169 630 666 l497 500 44 -84 c23 -47 58 -123 75 -170z
m1206 -556 l215 0 107 -430 c59 -236 168 -659 243 -940 203 -757 214 -801 205
-815 -5 -9 -48 25 -139 110 -73 68 -138 132 -146 143 -7 10 -128 137 -268 281
l-254 261 19 55 c28 82 34 201 14 280 -27 105 -63 169 -140 246 -165 165 -387
199 -604 92 -292 -144 -338 -555 -88 -804 139 -138 290 -173 493 -113 l73 22
57 -49 c125 -107 396 -369 542 -525 85 -90 171 -175 190 -189 45 -32 47 -55 6
-54 -16 0 -178 41 -360 92 -507 139 -1428 378 -1796 466 l-27 6 -6 352 c-3
194 -9 428 -12 519 -9 247 -8 251 158 409 72 69 238 232 368 363 l236 239 350
-8 c192 -5 446 -9 564 -9z m-403 -966 c91 -34 141 -172 100 -272 -30 -71 -122
-127 -207 -127 -139 1 -232 162 -171 296 37 80 189 137 278 103z"/>
</g>
</svg>
